HIERARCHY
ROOT mixamorig:Hips
{
	OFFSET -0.000008 104.274872 1.554316
	CHANNELS 6 Xposition Yposition Zposition Xrotation Yrotation Zrotation
	JOINT mixamorig:Spine
	{
		OFFSET -0.000005 10.181595 0.131521
		CHANNELS 6 Xposition Yposition Zposition Xrotation Yrotation Zrotation
		JOINT mixamorig:Spine1
		{
			OFFSET -0.000000 9.893959 -1.470711
			CHANNELS 6 Xposition Yposition Zposition Xrotation Yrotation Zrotation
			JOINT mixamorig:Spine2
			{
				OFFSET -0.000000 9.220757 -1.370642
				CHANNELS 3 Xrotation Yrotation Zrotation
				JOINT mixamorig:Neck
				{
					OFFSET 0.000001 16.740417 -2.049038
					CHANNELS 6 Xposition Yposition Zposition Xrotation Yrotation Zrotation
					JOINT mixamorig:Head
					{
						OFFSET 0.000000 9.617874 1.685009
						CHANNELS 6 Xposition Yposition Zposition Xrotation Yrotation Zrotation
						JOINT mixamorig:HeadTop_End
						{
							OFFSET 0.000002 22.037384 7.501098
							CHANNELS 6 Xposition Yposition Zposition Xrotation Yrotation Zrotation
							End Site
							{
								OFFSET 0.000002 23.106583 -2.828261
							}
						}
					}
				}
				JOINT mixamorig:RightShoulder
				{
					OFFSET -4.569969 11.014923 -2.160886
					CHANNELS 6 Xposition Yposition Zposition Xrotation Yrotation Zrotation
					JOINT mixamorig:RightArm
					{
						OFFSET -10.592850 -0.524811 -2.232100
						CHANNELS 3 Xrotation Yrotation Zrotation
						JOINT mixamorig:RightForeArm
						{
							OFFSET -27.841520 0.000015 -0.000005
							CHANNELS 6 Xposition Yposition Zposition Xrotation Yrotation Zrotation
							JOINT mixamorig:RightHand
							{
								OFFSET -28.328838 -0.000015 0.000018
								CHANNELS 6 Xposition Yposition Zposition Xrotation Yrotation Zrotation
								JOINT mixamorig:RightHandThumb1
								{
									OFFSET -2.464806 -1.573990 2.681853
									CHANNELS 6 Xposition Yposition Zposition Xrotation Yrotation Zrotation
									JOINT mixamorig:RightHandThumb2
									{
										OFFSET -3.215195 -1.872772 1.924282
										CHANNELS 6 Xposition Yposition Zposition Xrotation Yrotation Zrotation
										JOINT mixamorig:RightHandThumb3
										{
											OFFSET -2.654823 -1.527985 1.512609
											CHANNELS 6 Xposition Yposition Zposition Xrotation Yrotation Zrotation
											JOINT mixamorig:RightHandThumb4
											{
												OFFSET -2.018822 -1.152008 1.108055
												CHANNELS 3 Xrotation Yrotation Zrotation
												End Site
												{
													OFFSET -1.888100 -1.145340 1.324313
												}
											}
										}
									}
								}
								JOINT mixamorig:RightHandIndex1
								{
									OFFSET -9.108284 -0.517868 2.259835
									CHANNELS 6 Xposition Yposition Zposition Xrotation Yrotation Zrotation
									JOINT mixamorig:RightHandIndex2
									{
										OFFSET -3.699997 0.000000 0.001215
										CHANNELS 3 Xrotation Yrotation Zrotation
										JOINT mixamorig:RightHandIndex3
										{
											OFFSET -2.850014 0.000031 -0.000522
											CHANNELS 3 Xrotation Yrotation Zrotation
											JOINT mixamorig:RightHandIndex4
											{
												OFFSET -2.772179 -0.000015 -0.000019
												CHANNELS 3 Xrotation Yrotation Zrotation
												End Site
												{
													OFFSET -2.772186 0.000000 -0.000502
												}
											}
										}
									}
								}
								JOINT mixamorig:RightHandMiddle1
								{
									OFFSET -9.532509 -0.000046 -0.000025
									CHANNELS 6 Xposition Yposition Zposition Xrotation Yrotation Zrotation
									JOINT mixamorig:RightHandMiddle2
									{
										OFFSET -3.700012 0.000000 0.003713
										CHANNELS 3 Xrotation Yrotation Zrotation
										JOINT mixamorig:RightHandMiddle3
										{
											OFFSET -2.949989 0.000015 -0.002054
											CHANNELS 3 Xrotation Yrotation Zrotation
											JOINT mixamorig:RightHandMiddle4
											{
												OFFSET -2.946625 0.000000 -0.000154
												CHANNELS 3 Xrotation Yrotation Zrotation
												End Site
												{
													OFFSET -2.946632 0.000015 -0.001136
												}
											}
										}
									}
								}
								JOINT mixamorig:RightHandRing1
								{
									OFFSET -9.103600 -0.043076 -1.865135
									CHANNELS 6 Xposition Yposition Zposition Xrotation Yrotation Zrotation
									JOINT mixamorig:RightHandRing2
									{
										OFFSET -3.379272 0.000000 -0.001054
										CHANNELS 3 Xrotation Yrotation Zrotation
										JOINT mixamorig:RightHandRing3
										{
											OFFSET -2.889694 0.000015 0.000379
											CHANNELS 3 Xrotation Yrotation Zrotation
											JOINT mixamorig:RightHandRing4
											{
												OFFSET -2.638809 0.000000 0.000941
												CHANNELS 3 Xrotation Yrotation Zrotation
												End Site
												{
													OFFSET -2.638802 0.000000 0.005160
												}
											}
										}
									}
								}
								JOINT mixamorig:RightHandPinky1
								{
									OFFSET -8.076675 -0.486710 -3.806280
									CHANNELS 6 Xposition Yposition Zposition Xrotation Yrotation Zrotation
									JOINT mixamorig:RightHandPinky2
									{
										OFFSET -3.600006 -0.000031 -0.003747
										CHANNELS 3 Xrotation Yrotation Zrotation
										JOINT mixamorig:RightHandPinky3
										{
											OFFSET -2.099976 -0.000015 -0.005740
											CHANNELS 3 Xrotation Yrotation Zrotation
											JOINT mixamorig:RightHandPinky4
											{
												OFFSET -2.115776 -0.000031 -0.003680
												CHANNELS 3 Xrotation Yrotation Zrotation
												End Site
												{
													OFFSET -2.115776 -0.000015 -0.003507
												}
											}
										}
									}
								}
							}
						}
					}
				}
				JOINT mixamorig:LeftShoulder
				{
					OFFSET 4.570447 11.014725 -2.160858
					CHANNELS 6 Xposition Yposition Zposition Xrotation Yrotation Zrotation
					JOINT mixamorig:LeftArm
					{
						OFFSET 10.592371 -0.524597 -2.232121
						CHANNELS 3 Xrotation Yrotation Zrotation
						JOINT mixamorig:LeftForeArm
						{
							OFFSET 27.841520 -0.000015 0.000023
							CHANNELS 3 Xrotation Yrotation Zrotation
							JOINT mixamorig:LeftHand
							{
								OFFSET 28.328835 -0.000046 0.000017
								CHANNELS 6 Xposition Yposition Zposition Xrotation Yrotation Zrotation
								JOINT mixamorig:LeftHandThumb1
								{
									OFFSET 2.466141 -1.576187 2.681734
									CHANNELS 6 Xposition Yposition Zposition Xrotation Yrotation Zrotation
									JOINT mixamorig:LeftHandThumb2
									{
										OFFSET 3.217804 -1.872055 1.916487
										CHANNELS 6 Xposition Yposition Zposition Xrotation Yrotation Zrotation
										JOINT mixamorig:LeftHandThumb3
										{
											OFFSET 2.656021 -1.528809 1.514508
											CHANNELS 6 Xposition Yposition Zposition Xrotation Yrotation Zrotation
											JOINT mixamorig:LeftHandThumb4
											{
												OFFSET 2.020889 -1.154068 1.115132
												CHANNELS 6 Xposition Yposition Zposition Xrotation Yrotation Zrotation
												End Site
												{
													OFFSET 1.908852 -1.150833 1.300490
												}
											}
										}
									}
								}
								JOINT mixamorig:LeftHandIndex1
								{
									OFFSET 9.109306 -0.518036 2.259871
									CHANNELS 6 Xposition Yposition Zposition Xrotation Yrotation Zrotation
									JOINT mixamorig:LeftHandIndex2
									{
										OFFSET 3.699997 -0.000015 -0.000323
										CHANNELS 3 Xrotation Yrotation Zrotation
										JOINT mixamorig:LeftHandIndex3
										{
											OFFSET 2.850006 -0.000015 0.000350
											CHANNELS 3 Xrotation Yrotation Zrotation
											JOINT mixamorig:LeftHandIndex4
											{
												OFFSET 2.774857 -0.000015 -0.000027
												CHANNELS 3 Xrotation Yrotation Zrotation
												End Site
												{
													OFFSET 2.774864 0.000000 -0.000099
												}
											}
										}
									}
								}
								JOINT mixamorig:LeftHandMiddle1
								{
									OFFSET 9.533401 0.000031 0.000044
									CHANNELS 6 Xposition Yposition Zposition Xrotation Yrotation Zrotation
									JOINT mixamorig:LeftHandMiddle2
									{
										OFFSET 3.699997 0.000000 -0.000231
										CHANNELS 3 Xrotation Yrotation Zrotation
										JOINT mixamorig:LeftHandMiddle3
										{
											OFFSET 2.949997 -0.000015 -0.000059
											CHANNELS 3 Xrotation Yrotation Zrotation
											JOINT mixamorig:LeftHandMiddle4
											{
												OFFSET 2.952866 0.000000 0.000062
												CHANNELS 3 Xrotation Yrotation Zrotation
												End Site
												{
													OFFSET 2.952858 0.000000 0.000228
												}
											}
										}
									}
								}
								JOINT mixamorig:LeftHandRing1
								{
									OFFSET 9.104530 -0.043030 -1.865075
									CHANNELS 6 Xposition Yposition Zposition Xrotation Yrotation Zrotation
									JOINT mixamorig:LeftHandRing2
									{
										OFFSET 3.150009 0.000000 0.000042
										CHANNELS 3 Xrotation Yrotation Zrotation
										JOINT mixamorig:LeftHandRing3
										{
											OFFSET 2.949989 -0.000015 0.000040
											CHANNELS 3 Xrotation Yrotation Zrotation
											JOINT mixamorig:LeftHandRing4
											{
												OFFSET 2.644318 -0.000015 0.000056
												CHANNELS 6 Xposition Yposition Zposition Xrotation Yrotation Zrotation
												End Site
												{
													OFFSET 2.644318 0.000000 0.000120
												}
											}
										}
									}
								}
								JOINT mixamorig:LeftHandPinky1
								{
									OFFSET 8.077782 -0.486877 -3.806258
									CHANNELS 6 Xposition Yposition Zposition Xrotation Yrotation Zrotation
									JOINT mixamorig:LeftHandPinky2
									{
										OFFSET 3.599960 0.000031 0.014726
										CHANNELS 3 Xrotation Yrotation Zrotation
										JOINT mixamorig:LeftHandPinky3
										{
											OFFSET 2.099998 0.000031 0.007705
											CHANNELS 3 Xrotation Yrotation Zrotation
											JOINT mixamorig:LeftHandPinky4
											{
												OFFSET 2.125504 0.000000 0.007515
												CHANNELS 3 Xrotation Yrotation Zrotation
												End Site
												{
													OFFSET 2.125511 0.000015 0.006257
												}
											}
										}
									}
								}
							}
						}
					}
				}
			}
		}
	}
	JOINT mixamorig:RightUpLeg
	{
		OFFSET -8.207787 -6.751663 -1.599560
		CHANNELS 6 Xposition Yposition Zposition Xrotation Yrotation Zrotation
		JOINT mixamorig:RightLeg
		{
			OFFSET -0.000001 -44.370129 0.345939
			CHANNELS 3 Xrotation Yrotation Zrotation
			JOINT mixamorig:RightFoot
			{
				OFFSET 0.000001 -44.423679 -3.043537
				CHANNELS 3 Xrotation Yrotation Zrotation
				JOINT mixamorig:RightToeBase
				{
					OFFSET -0.000003 -8.728673 10.710563
					CHANNELS 6 Xposition Yposition Zposition Xrotation Yrotation Zrotation
					JOINT mixamorig:RightToe_End
					{
						OFFSET -0.000002 -0.000676 9.278122
						CHANNELS 6 Xposition Yposition Zposition Xrotation Yrotation Zrotation
						End Site
						{
							OFFSET -0.000003 -0.000676 9.278122
						}
					}
				}
			}
		}
	}
	JOINT mixamorig:LeftUpLeg
	{
		OFFSET 8.207791 -6.751694 -1.599555
		CHANNELS 6 Xposition Yposition Zposition Xrotation Yrotation Zrotation
		JOINT mixamorig:LeftLeg
		{
			OFFSET -0.000002 -44.370033 0.346957
			CHANNELS 3 Xrotation Yrotation Zrotation
			JOINT mixamorig:LeftFoot
			{
				OFFSET 0.000000 -44.423672 -3.044393
				CHANNELS 3 Xrotation Yrotation Zrotation
				JOINT mixamorig:LeftToeBase
				{
					OFFSET -0.000003 -8.728668 10.710562
					CHANNELS 6 Xposition Yposition Zposition Xrotation Yrotation Zrotation
					JOINT mixamorig:LeftToe_End
					{
						OFFSET -0.000003 -0.000676 9.278135
						CHANNELS 6 Xposition Yposition Zposition Xrotation Yrotation Zrotation
						End Site
						{
							OFFSET -0.000003 -0.000677 9.278135
						}
					}
				}
			}
		}
	}
}
MOTION
Frames: 4
Frame Time: 0.033333
0.613788 101.679672 1.326079 -0.273892 10.103510 -4.655052 -0.000006 10.181599 0.131520 2.617563 -0.776620 3.454844 -0.000000 9.893965 -1.470711 1.656093 -2.278671 0.845952 -2.923707 -2.285053 0.251911 0.000001 16.740387 -2.049039 -3.367574 -1.151239 -0.983950 0.000001 9.617861 1.685012 -1.349392 -3.841515 0.310226 0.000002 22.037369 7.501101 0.000001 0.000000 0.000000 -4.569970 11.014950 -2.160887 -0.855025 5.246491 5.396779 22.093422 -2.728010 73.794791 -27.841526 0.000017 0.000006 0.000002 32.516768 0.000013 -28.328844 0.000002 0.000030 25.456943 8.380584 4.049744 -2.464818 -1.573960 2.681853 12.681582 -8.935215 -17.383977 -3.215189 -1.872797 1.924288 5.705689 -4.297384 -13.166157 -2.654840 -1.527967 1.512610 -14.216488 8.117040 9.259524 -0.000002 -0.000003 0.000005 -9.108288 -0.517872 2.259837 -0.930496 0.784620 10.773257 0.632555 -3.366041 26.745901 -0.167956 -0.600808 17.433226 0.000003 -0.000000 -0.000004 -9.532527 -0.000013 -0.000019 0.862780 -8.166494 23.115686 1.156578 -4.281340 38.020432 0.820446 -3.112878 31.082193 0.000000 -0.000001 -0.000000 -9.103609 -0.043047 -1.865131 1.263913 -8.655728 41.003760 0.716436 -2.619818 23.801594 -0.123711 -0.221595 20.215152 0.000000 -0.000001 0.000003 -8.076674 -0.486688 -3.806278 2.457340 -10.240220 45.244853 1.494179 -4.289544 49.082351 -0.447132 -2.687826 43.262490 0.000001 -0.000002 0.000002 4.570446 11.014746 -2.160856 8.280035 -20.929224 3.137748 1.625352 4.497794 -76.980139 -0.000070 -36.305109 -0.000022 28.328861 -0.000043 0.000025 19.884166 -19.957234 5.430810 2.466126 -1.576223 2.681730 28.930854 9.572248 20.914294 3.217804 -1.872039 1.916490 -9.054186 17.235549 -12.603851 2.656017 -1.528801 1.514501 7.684663 -11.866359 1.140758 2.020868 -1.154106 1.115132 0.000001 -0.000003 -0.000001 9.109311 -0.518047 2.259873 0.321601 3.495296 3.987144 0.267703 2.476945 -16.816529 -0.020352 0.170888 -3.850806 0.000003 0.000002 -0.000000 9.533408 0.000031 0.000043 0.604018 7.620891 -16.487564 0.612215 3.445547 -27.102857 0.272106 1.848977 -15.987028 0.000003 -0.000003 -0.000001 9.104524 -0.043033 -1.865076 0.877459 8.007534 -34.399759 0.422226 2.000667 -17.172344 0.298909 1.211725 -12.585003 2.644319 0.000013 0.000056 0.000001 -0.000002 0.000003 8.077785 -0.486884 -3.806264 3.699735 13.725520 -31.414058 0.589373 2.630047 -29.103214 0.098498 1.521201 -6.724398 0.000000 -0.000004 -0.000002 -8.207788 -6.751662 -1.599561 -8.504018 -12.878036 9.584037 17.349454 1.344916 -1.888862 -7.801933 -4.857176 -4.981997 -0.000004 -8.728670 10.710563 -2.773273 0.000000 0.000001 -0.000002 -0.000676 9.278122 -0.000000 0.000000 -0.000000 8.207792 -6.751698 -1.599557 -22.452268 -0.977538 3.348583 64.067728 2.084854 6.923227 1.506892 0.216423 -1.490749 -0.000003 -8.728670 10.710560 -1.568116 0.000001 -0.000001 -0.000004 -0.000676 9.278137 0.000011 -0.000000 0.000001 
0.821461 101.966232 1.163063 0.514171 8.480233 -3.648015 -0.000005 10.181598 0.131522 2.220831 -0.260546 2.875818 -0.000000 9.893976 -1.470712 1.320652 -1.249885 0.284491 -3.217852 -1.239438 -0.283698 0.000002 16.740410 -2.049031 -2.924324 -1.309466 -0.732111 0.000000 9.617865 1.685005 -0.381137 -4.256673 0.844489 0.000002 22.037354 7.501104 0.000000 0.000000 0.000000 -4.569969 11.014887 -2.160881 -0.860301 5.573569 5.481518 16.310929 -2.509328 72.699318 -27.841507 0.000008 -0.000004 0.000005 33.397132 -0.000015 -28.328833 0.000003 0.000038 26.502975 6.496335 3.270103 -2.464808 -1.573969 2.681852 12.314641 -8.751313 -17.669609 -3.215195 -1.872785 1.924278 5.391041 -4.662734 -12.978778 -2.654848 -1.527968 1.512609 -14.292338 8.368289 9.240361 -0.000005 0.000000 0.000001 -9.108264 -0.517850 2.259837 -1.006683 1.126562 10.974229 0.633246 -3.367396 26.761004 -0.167790 -0.602379 17.448316 -0.000003 0.000003 -0.000000 -9.532507 -0.000018 -0.000025 0.591939 -7.521773 23.646265 1.157368 -4.282445 38.034093 0.820968 -3.113724 31.091967 0.000000 0.000000 -0.000000 -9.103591 -0.043045 -1.865134 1.253366 -8.645166 41.224416 0.719117 -2.624535 23.855836 -0.122965 -0.227124 20.269701 0.000000 -0.000002 0.000001 -8.076681 -0.486688 -3.806277 2.394964 -10.149489 45.617829 1.496647 -4.292207 49.118407 -0.445854 -2.691701 43.298372 -0.000001 -0.000000 -0.000002 4.570448 11.014695 -2.160850 8.097219 -21.022441 2.432426 4.324127 7.969318 -78.978201 -0.000049 -32.694008 -0.000000 28.328842 -0.000054 0.000022 23.868016 -14.990937 -3.994026 2.466120 -1.576217 2.681720 27.825103 10.640498 24.313091 3.217789 -1.872050 1.916480 -4.857138 10.083502 -14.167077 2.656030 -1.528804 1.514506 6.741359 -20.638759 2.058317 2.020888 -1.154109 1.115123 -0.000001 -0.000001 -0.000006 9.109306 -0.518027 2.259865 1.471210 4.054948 0.584870 0.273788 2.496833 -17.022454 -0.019692 0.191729 -4.056421 0.000002 0.000002 -0.000000 9.533403 0.000026 0.000042 0.976648 8.742818 -18.137962 0.611290 3.443643 -27.081497 0.271602 1.847386 -15.970331 0.000001 0.000003 0.000001 9.104543 -0.043034 -1.865080 1.077808 8.345742 -36.267061 0.415662 1.984990 -17.002185 0.293630 1.195593 -12.414070 2.644309 0.000024 0.000060 -0.000006 0.000006 0.000000 8.077777 -0.486886 -3.806265 4.266962 14.472705 -32.319680 0.588554 2.628361 -29.084387 0.098075 1.519339 -6.705604 0.000001 -0.000000 0.000003 -8.207789 -6.751653 -1.599560 -5.806191 -13.025215 8.887277 16.902080 1.242180 -2.257616 -9.431185 -2.545390 -4.504523 -0.000004 -8.728670 10.710563 -2.707372 0.000002 -0.000003 -0.000002 -0.000676 9.278124 0.000000 0.000000 -0.000000 8.207792 -6.751694 -1.599558 -27.734965 -1.318844 0.377546 57.130506 3.920182 6.678099 -1.255420 0.665319 -3.440185 -0.000004 -8.728672 10.710562 -0.789417 0.000001 -0.000001 -0.000002 -0.000676 9.278137 0.000005 -0.000001 -0.000000 
1.075749 101.738274 1.013591 1.395398 6.059982 -2.464810 -0.000005 10.181595 0.131522 1.739392 0.288562 2.158038 0.000000 9.893965 -1.470712 1.189309 -0.070741 -0.010986 -3.312095 -0.061149 -0.540019 0.000002 16.740404 -2.049033 -3.121416 -1.251188 -1.091543 0.000001 9.617870 1.685012 0.167240 -4.499401 0.960839 0.000002 22.037338 7.501101 0.000001 -0.000000 0.000000 -4.569969 11.014932 -2.160885 -0.784127 6.381138 3.869974 10.664881 -1.627268 72.742573 -27.841520 0.000021 0.000000 -0.000005 33.865707 0.000013 -28.328827 0.000004 0.000029 26.095481 5.164817 3.122627 -2.464813 -1.573967 2.681855 12.523495 -8.064331 -17.332300 -3.215199 -1.872787 1.924280 4.746899 -4.965303 -13.028782 -2.654840 -1.527962 1.512609 -14.360001 8.593165 9.223839 -0.000003 0.000000 0.000003 -9.108296 -0.517850 2.259836 -1.094140 1.446162 11.275874 0.629832 -3.360587 26.685436 -0.168562 -0.594533 17.372965 0.000008 -0.000000 0.000001 -9.532519 -0.000012 -0.000022 0.289691 -6.838344 24.211827 1.158052 -4.283359 38.045725 0.821316 -3.114308 31.098842 0.000000 0.000000 -0.000000 -9.103611 -0.043048 -1.865132 1.249791 -8.645488 41.582438 0.722869 -2.631144 23.931873 -0.121884 -0.234924 20.346223 0.000002 -0.000002 0.000003 -8.076692 -0.486682 -3.806276 2.293119 -10.009632 46.137474 1.492195 -4.287405 49.053442 -0.448152 -2.684718 43.233701 -0.000002 -0.000004 -0.000004 4.570447 11.014743 -2.160856 7.521392 -19.869746 0.240275 7.610264 12.305151 -79.228002 -0.000057 -32.034991 -0.000005 28.328850 -0.000041 0.000029 32.365671 -11.114848 -15.322913 2.466140 -1.576220 2.681726 26.681601 11.757761 27.948055 3.217799 -1.872037 1.916487 4.104942 10.805405 -14.952297 2.656031 -1.528816 1.514507 6.116597 -24.835973 1.550625 2.020873 -1.154108 1.115124 -0.000000 0.000001 -0.000006 9.109329 -0.518032 2.259873 2.784194 4.348247 -1.311012 0.277505 2.508927 -17.147854 -0.019216 0.204418 -4.181508 -0.000002 0.000001 -0.000000 9.533422 0.000024 0.000041 1.246388 9.504856 -18.725983 0.610336 3.441685 -27.059777 0.271121 1.845864 -15.954374 -0.000001 0.000000 0.000001 9.104550 -0.043024 -1.865071 1.202012 8.534999 -36.867121 0.413124 1.978932 -16.936615 0.291635 1.189389 -12.348208 2.644323 -0.000014 0.000059 0.000000 -0.000003 0.000001 8.077806 -0.486886 -3.806259 4.347707 14.606537 -32.311351 0.589932 2.631168 -29.115747 0.098766 1.522428 -6.736907 -0.000001 -0.000004 0.000002 -8.207788 -6.751660 -1.599562 -3.548209 -13.113045 7.500904 17.201427 2.335132 -2.404687 -12.368236 0.148640 -3.984970 -0.000004 -8.728670 10.710563 -2.411307 -0.000001 -0.000001 -0.000002 -0.000676 9.278124 -0.000000 0.000000 -0.000000 8.207794 -6.751690 -1.599560 -31.200212 -1.143699 -1.425158 47.269069 4.862204 5.955892 -2.117747 0.814039 -3.599521 -0.000003 -8.728672 10.710560 -0.131310 0.000001 -0.000001 -0.000005 -0.000678 9.278137 0.000005 -0.000001 0.000000 
1.357864 101.225281 0.958966 2.162494 3.270124 -1.022668 -0.000005 10.181589 0.131522 1.372864 0.707959 1.554657 0.000000 9.893959 -1.470711 1.083229 0.807520 -0.532533 -3.396407 0.838323 -1.023559 0.000001 16.740440 -2.049038 -3.502634 -1.039022 -1.491721 0.000001 9.617896 1.685011 0.265012 -4.087351 0.791331 0.000002 22.037354 7.501103 -0.000000 -0.000000 0.000000 -4.569970 11.014936 -2.160887 -0.665310 7.917493 2.245729 5.789224 0.249688 72.986596 -27.841505 0.000018 0.000003 -0.000016 33.995682 0.000021 -28.328846 0.000002 0.000033 24.326284 4.748510 3.478632 -2.464805 -1.573972 2.681858 12.877060 -7.019343 -16.798096 -3.215198 -1.872783 1.924282 4.098641 -5.322272 -13.130322 -2.654839 -1.527961 1.512607 -14.415428 8.777976 9.210694 -0.000005 0.000002 0.000001 -9.108274 -0.517856 2.259842 -1.194568 1.597478 11.863532 0.620714 -3.342326 26.483043 -0.170577 -0.573553 17.171164 0.000000 -0.000003 0.000001 -9.532497 -0.000008 -0.000016 -0.021437 -6.177607 24.869602 1.158509 -4.283956 38.052876 0.821483 -3.114558 31.101772 -0.000002 0.000001 0.000000 -9.103611 -0.043049 -1.865132 1.200951 -8.594740 42.165070 0.724487 -2.633992 23.964678 -0.121425 -0.238313 20.379664 0.000001 -0.000005 0.000005 -8.076673 -0.486695 -3.806281 2.127012 -9.806156 46.688441 1.486635 -4.281350 48.971726 -0.451046 -2.675909 43.152398 -0.000002 -0.000001 -0.000001 4.570447 11.014757 -2.160858 6.979801 -16.953682 -2.130165 10.941210 16.423987 -78.862184 -0.000052 -32.026883 -0.000020 28.328854 -0.000057 0.000024 42.935198 -8.792061 -24.867670 2.466120 -1.576205 2.681739 25.691864 12.615552 31.292471 3.217812 -1.872032 1.916492 5.004216 14.651575 -14.329382 2.656011 -1.528816 1.514509 6.264367 -26.526156 2.247346 2.020873 -1.154095 1.115134 0.000001 0.000003 -0.000006 9.109303 -0.518042 2.259873 4.151037 3.603718 1.083148 0.287649 2.541219 -17.483293 -0.017881 0.238384 -4.516601 -0.000002 -0.000004 -0.000001 9.533404 0.000028 0.000041 0.973688 9.018590 -15.604733 0.605944 3.432649 -26.959047 0.268042 1.836182 -15.852681 0.000002 0.000003 0.000001 9.104539 -0.043032 -1.865075 1.111226 8.385584 -33.997782 0.415202 1.983865 -16.990154 0.293267 1.194453 -12.401988 2.644306 -0.000002 0.000056 0.000002 0.000002 -0.000002 8.077786 -0.486889 -3.806257 3.518195 13.791328 -29.602446 0.599383 2.650158 -29.327009 0.103364 1.543214 -6.947833 0.000001 0.000004 0.000002 -8.207788 -6.751659 -1.599559 -1.251738 -13.530139 5.526005 17.684915 5.779327 -2.535118 -15.763090 0.381342 -3.259823 -0.000005 -8.728670 10.710563 -2.392616 0.000001 -0.000001 -0.000002 -0.000676 9.278124 -0.000000 0.000000 -0.000000 8.207792 -6.751685 -1.599555 -33.340909 -0.080346 -2.375547 35.569259 5.007510 5.045563 -2.056559 0.617142 -2.527628 -0.000002 -8.728671 10.710556 -0.230266 0.000005 -0.000001 -0.000004 -0.000677 9.278133 0.000003 -0.000001 -0.000000 
